<?xml version="1.0" encoding="iso-8859-1"?>
<!-- Generator: Adobe Illustrator 16.0.0, SVG Export Plug-In . SVG Version: 6.00 Build 0)  -->
<!DOCTYPE svg PUBLIC "-//W3C//DTD SVG 1.1//EN" "http://www.w3.org/Graphics/SVG/1.1/DTD/svg11.dtd">
<svg version="1.1" id="Capa_1" xmlns="http://www.w3.org/2000/svg" xmlns:xlink="http://www.w3.org/1999/xlink" x="0px" y="0px"
	 width="25.361px" height="25.361px" viewBox="0 0 25.361 25.361" style="enable-background:new 0 0 25.361 25.361;"
	 xml:space="preserve">
<g>
	<path d="M23.862,0H1.5C0.671,0,0,0.671,0,1.5v22.361c0,0.828,0.671,1.5,1.5,1.5h22.361c0.828,0,1.5-0.672,1.5-1.5V1.5
		C25.362,0.673,24.689,0,23.862,0z M20.602,9.053c-0.896,5.037-5.891,9.3-7.394,10.275s-2.874-0.391-3.37-1.422
		c-0.569-1.178-2.274-7.554-2.722-8.082c-0.446-0.527-1.787,0.528-1.787,0.528L4.681,9.499c0,0,2.721-3.25,4.791-3.657
		c2.195-0.431,2.192,3.372,2.722,5.482c0.511,2.042,0.854,3.21,1.3,3.21c0.447,0,1.3-1.14,2.232-2.884
		c0.936-1.747-0.039-3.291-1.867-2.193C14.588,5.072,21.494,4.016,20.602,9.053z"/>
</g>
<g>
</g>
<g>
</g>
<g>
</g>
<g>
</g>
<g>
</g>
<g>
</g>
<g>
</g>
<g>
</g>
<g>
</g>
<g>
</g>
<g>
</g>
<g>
</g>
<g>
</g>
<g>
</g>
<g>
</g>
</svg>
